<svg width="97" height="19" viewBox="0 0 97 19" fill="none" xmlns="http://www.w3.org/2000/svg">
<path d="M78.7559 5.65595C78.7559 4.81966 78.9026 4.05673 79.196 3.36716C79.5041 2.66292 79.9369 2.06138 80.4945 1.56254C81.0373 1.0637 81.6829 0.682235 82.4311 0.418145C83.1794 0.139382 84.001 0 84.896 0C85.7616 0 86.5612 0.146717 87.2948 0.440152C88.0284 0.718915 88.6666 1.10772 89.2095 1.60655C89.7376 2.10539 90.1484 2.6996 90.4419 3.38917C90.75 4.06407 90.8967 4.79765 90.882 5.58993C90.8527 6.55826 90.6766 7.40189 90.3539 8.1208C90.0311 8.83971 89.5983 9.43392 89.0554 9.90341C88.5126 10.3876 87.8743 10.747 87.1407 10.9818C86.4218 11.2165 85.6516 11.3266 84.83 11.3119C83.9496 11.3119 83.1354 11.1945 82.3871 10.9598C81.6535 10.725 81.0153 10.3729 80.4724 9.90341C79.9296 9.44859 79.5041 8.86906 79.196 8.16481C78.9026 7.4459 78.7559 6.60961 78.7559 5.65595ZM81.6829 5.56792C81.6829 6.74166 81.9836 7.59995 82.5852 8.14281C83.1867 8.68566 83.935 8.94242 84.83 8.91307C85.2408 8.91307 85.6369 8.83971 86.0184 8.693C86.4145 8.54628 86.7593 8.3262 87.0527 8.03277C87.3608 7.75401 87.6029 7.40189 87.779 6.9764C87.955 6.55093 88.0431 6.05942 88.0431 5.5019C88.0284 4.9297 87.933 4.44553 87.757 4.0494C87.5809 3.65326 87.3462 3.33048 87.0527 3.08106C86.7593 2.84632 86.4218 2.67025 86.0404 2.55288C85.6736 2.43551 85.2921 2.37682 84.896 2.37682C84.0303 2.37682 83.2747 2.65558 82.6292 3.21311C81.9983 3.77063 81.6829 4.55557 81.6829 5.56792ZM96.1198 0.0440162C96.1639 0.322779 96.2079 0.682236 96.2519 1.12239C96.2959 1.54787 96.3326 2.03203 96.3619 2.57489C96.3913 3.11774 96.4133 3.70461 96.4279 4.33549C96.4426 4.95171 96.4573 5.58259 96.472 6.22815C96.472 6.8737 96.472 7.51192 96.472 8.14281C96.472 8.77369 96.4646 9.37523 96.45 9.94743C96.4353 10.505 96.4133 11.0185 96.3839 11.488C96.3693 11.9575 96.3473 12.3389 96.3179 12.6324L93.3689 12.4343C93.3836 12.1555 93.3982 11.8034 93.4129 11.3779C93.4423 10.9378 93.4643 10.4463 93.4789 9.90341C93.4936 9.36056 93.5009 8.78836 93.5009 8.18682C93.5156 7.58528 93.5229 6.9764 93.5229 6.36019C93.5083 5.74398 93.4936 5.1351 93.4789 4.53356C93.4789 3.93202 93.4643 3.3745 93.4349 2.86099C93.4202 2.34748 93.3982 1.88532 93.3689 1.47451C93.3395 1.0637 93.3102 0.733587 93.2809 0.484167L96.1198 0.0440162ZM96.626 18.5304C96.45 18.5597 96.1492 18.5817 95.7237 18.5964C95.2982 18.6258 94.7847 18.6478 94.1832 18.6624C93.5816 18.6771 92.9214 18.6918 92.2025 18.7064C91.4836 18.7211 90.7427 18.7285 89.9797 18.7285C89.2168 18.7285 88.4539 18.7285 87.6909 18.7285C86.9427 18.7285 86.2384 18.7285 85.5782 18.7285C84.918 18.7138 84.3238 18.6991 83.7956 18.6844C83.2674 18.6844 82.8566 18.6698 82.5632 18.6404C82.2697 18.6404 81.969 18.6258 81.6609 18.5964C81.3674 18.5817 81.096 18.5157 80.8466 18.3983C80.5972 18.2956 80.3844 18.1196 80.2084 17.8702C80.047 17.6354 79.9589 17.2833 79.9443 16.8138C79.9296 16.5644 79.9149 16.2709 79.9003 15.9335C79.8856 15.596 79.8709 15.2219 79.8562 14.8111C79.8562 14.4003 79.8562 13.9675 79.8562 13.5127C79.8709 13.0578 79.9003 12.5737 79.9443 12.0602L82.9153 12.2582C82.9153 12.537 82.908 12.8451 82.8933 13.1825C82.8933 13.5053 82.8933 13.8354 82.8933 14.1729C82.8933 14.4957 82.8933 14.8038 82.8933 15.0972C82.8933 15.376 82.9006 15.596 82.9153 15.7574C82.9153 15.9628 82.9446 16.0802 83.0033 16.1096C83.062 16.1242 83.2894 16.1316 83.6856 16.1316C83.9496 16.1462 84.3164 16.1609 84.7859 16.1756C85.2701 16.1756 85.8056 16.1756 86.3925 16.1756C86.994 16.1756 87.6323 16.1756 88.3071 16.1756C88.982 16.1609 89.6569 16.1536 90.3318 16.1536C91.0067 16.1389 91.6596 16.1316 92.2905 16.1316C92.9361 16.1169 93.5156 16.1022 94.0291 16.0875C94.5426 16.0875 94.9754 16.0802 95.3276 16.0655C95.6944 16.0509 95.9438 16.0289 96.0758 15.9995L96.626 18.5304Z" fill="#2DDACC"/>
<path d="M76.6566 2.22263C76.6712 2.38402 76.6859 2.64811 76.7006 3.0149C76.7299 3.36702 76.7519 3.78516 76.7666 4.26933C76.7813 4.76817 76.7886 5.31836 76.7886 5.9199C76.8033 6.52144 76.818 7.13765 76.8326 7.76854C76.8326 8.39942 76.8326 9.03764 76.8326 9.6832C76.8326 10.3141 76.8253 10.9156 76.8106 11.4878C76.796 12.06 76.7813 12.5882 76.7666 13.0724C76.7519 13.5419 76.7299 13.9307 76.7006 14.2388L73.7516 14.2168C73.7956 13.6299 73.8249 12.8083 73.8396 11.7519C73.8543 10.6955 73.8543 9.62451 73.8396 8.5388C73.8396 7.43842 73.8249 6.43341 73.7956 5.52376C73.7809 4.59945 73.7589 3.96856 73.7296 3.63111C73.6855 3.32301 73.5828 3.10293 73.4215 2.97089C73.2747 2.83884 72.9886 2.76548 72.5632 2.75081C72.3871 2.75081 72.101 2.75814 71.7049 2.77282C71.3087 2.77282 70.8392 2.77282 70.2964 2.77282C69.7535 2.78749 69.152 2.80216 68.4918 2.81683C67.8462 2.8315 67.186 2.84617 66.5111 2.86085C65.8362 2.87552 65.1613 2.89019 64.4864 2.90486C63.8261 2.91953 63.2099 2.93421 62.6377 2.94888C62.0655 2.96355 61.5594 2.97822 61.1192 2.99289C60.6937 3.00756 60.371 3.0149 60.1509 3.0149L59.7988 0.440013C60.0188 0.410669 60.3563 0.381325 60.8111 0.351982C61.2659 0.322638 61.8015 0.300631 62.4177 0.285959C63.0192 0.256616 63.6794 0.234609 64.3983 0.219937C65.1173 0.190593 65.8435 0.168585 66.5771 0.153914C67.3107 0.139242 68.0296 0.131907 68.7338 0.131907C69.4528 0.117234 70.113 0.102562 70.7145 0.0878906C71.3161 0.0878906 71.8369 0.0952267 72.2771 0.109898C72.7172 0.109898 73.0473 0.109898 73.2674 0.109898C74.3384 0.153914 75.138 0.300631 75.6662 0.550051C76.2091 0.799469 76.5392 1.35699 76.6566 2.22263ZM59.2266 18.3322L59.5787 15.7573C59.7988 15.7866 60.1876 15.816 60.7451 15.8453C61.3026 15.8747 61.9702 15.904 62.7478 15.9334C63.5107 15.948 64.3543 15.9627 65.2786 15.9774C66.2176 15.992 67.1713 16.0067 68.1396 16.0214C69.108 16.0214 70.069 16.0214 71.0226 16.0214C71.9763 16.0067 72.8713 15.992 73.7076 15.9774C74.5292 15.9627 75.2554 15.9334 75.8863 15.8893C76.5319 15.8453 77.0307 15.794 77.3828 15.7353L77.7349 18.2882C77.4415 18.3469 76.9794 18.3982 76.3485 18.4422C75.7176 18.4862 74.9767 18.5229 74.1257 18.5523C73.2747 18.5669 72.3431 18.5816 71.3307 18.5963C70.3184 18.6109 69.2987 18.6183 68.2717 18.6183C67.2447 18.6183 66.2323 18.6109 65.2346 18.5963C64.2516 18.5963 63.3493 18.5816 62.5277 18.5523C61.7061 18.5376 61.0018 18.5082 60.415 18.4642C59.8281 18.4349 59.432 18.3909 59.2266 18.3322Z" fill="#2DDACC"/>
<path d="M54.4861 7.90069C54.266 7.91536 53.9506 7.93003 53.5398 7.9447C53.1437 7.9447 52.6888 7.95204 52.1753 7.96671C51.6618 7.96671 51.1043 7.96671 50.5027 7.96671C49.9012 7.96671 49.2997 7.95937 48.6981 7.9447C48.0819 7.9447 47.473 7.9447 46.8715 7.9447C46.2846 7.93003 45.7418 7.9227 45.2429 7.9227C44.7441 7.9227 44.3039 7.9227 43.9225 7.9227C43.541 7.90802 43.2623 7.90069 43.0862 7.90069C42.9688 7.90069 42.8734 7.93003 42.8001 7.98872C42.7267 8.0474 42.6901 8.13544 42.6901 8.25281C42.6167 9.04508 42.668 9.58794 42.8441 9.88137C43.0348 10.1748 43.519 10.3655 44.2966 10.4536C44.4287 10.4682 44.6781 10.4829 45.0449 10.4976C45.4263 10.5123 45.8885 10.5196 46.4313 10.5196C46.9595 10.5196 47.5537 10.5196 48.214 10.5196C48.8742 10.5196 49.5417 10.5196 50.2166 10.5196C50.9062 10.5196 51.5811 10.5123 52.2413 10.4976C52.9162 10.4829 53.5398 10.4682 54.112 10.4536C54.6842 10.4389 55.1757 10.4242 55.5865 10.4096C56.012 10.3802 56.3274 10.3509 56.5328 10.3215L57.127 12.7424C56.9363 12.7864 56.6209 12.8304 56.1807 12.8744C55.7406 12.9037 55.2197 12.9258 54.6182 12.9404C54.002 12.9698 53.3344 12.9918 52.6155 13.0064C51.8966 13.0064 51.1556 13.0064 50.3927 13.0064C49.6444 13.0211 48.9035 13.0285 48.1699 13.0285C47.4364 13.0138 46.7615 12.9991 46.1452 12.9844C45.5144 12.9698 44.9642 12.9551 44.4947 12.9404C44.0399 12.9111 43.7024 12.8817 43.4823 12.8524C42.646 12.7644 41.9711 12.5736 41.4576 12.2802C40.9588 11.9868 40.57 11.62 40.2912 11.1798C40.0125 10.7543 39.8291 10.2775 39.741 9.74932C39.653 9.20647 39.6237 8.64161 39.653 8.05474C39.6677 7.73196 39.6824 7.41652 39.697 7.10842C39.7264 6.78564 39.7924 6.49954 39.8951 6.25012C39.9978 6.01537 40.1518 5.82464 40.3572 5.67792C40.5627 5.51653 40.8561 5.43584 41.2376 5.43584L53.5618 5.45785C53.7379 5.45785 53.8699 5.41383 53.9579 5.3258C54.046 5.23777 54.09 5.10573 54.09 4.92966C54.09 4.7536 54.0753 4.47484 54.046 4.09338C54.0313 3.71191 54.024 3.45516 54.024 3.32311C54.0093 3.20574 53.9799 3.11037 53.9359 3.03701C53.8919 2.94898 53.8039 2.89763 53.6718 2.88296C53.5104 2.88296 53.217 2.88296 52.7915 2.88296C52.3807 2.86829 51.8819 2.85362 51.295 2.83894C50.6935 2.83894 50.0332 2.83894 49.3143 2.83894C48.5954 2.83894 47.8618 2.83894 47.1136 2.83894C46.3653 2.85362 45.6244 2.86829 44.8908 2.88296C44.1719 2.88296 43.5117 2.88296 42.9101 2.88296C42.3086 2.89763 41.7877 2.9123 41.3476 2.92697C40.9074 2.94164 40.5993 2.95632 40.4233 2.97099L39.8951 0.330079C40.0271 0.315407 40.3206 0.300735 40.7754 0.286063C41.2302 0.25672 41.7951 0.234713 42.47 0.220042C43.1302 0.205369 43.8711 0.198033 44.6927 0.198033C45.5144 0.183361 46.3506 0.176025 47.2016 0.176025C48.0526 0.176025 48.8889 0.183361 49.7105 0.198033C50.5468 0.198033 51.3097 0.205369 51.9993 0.220042C52.7035 0.234713 53.305 0.249384 53.8039 0.264056C54.3027 0.278727 54.6548 0.300735 54.8602 0.330079C55.5351 0.374094 56.0193 0.550155 56.3127 0.858261C56.6209 1.1517 56.8263 1.59185 56.929 2.17872C56.9436 2.35478 56.9583 2.63354 56.973 3.015C56.9876 3.3818 56.995 3.77793 56.995 4.20341C56.995 4.64356 56.9876 5.06904 56.973 5.47985C56.973 5.89066 56.9583 6.21344 56.929 6.44819C56.8996 6.75629 56.7969 7.00571 56.6209 7.19645C56.4448 7.37251 56.2321 7.51189 55.9826 7.61459C55.7479 7.71729 55.4911 7.79065 55.2124 7.83467C54.9483 7.86401 54.7062 7.88602 54.4861 7.90069ZM39.543 18.4203L39.741 15.9555C40.2105 15.9848 40.7681 16.0141 41.4136 16.0435C42.0738 16.0582 42.7267 16.0728 43.3723 16.0875C44.0325 16.0875 44.6487 16.0875 45.2209 16.0875C45.8078 16.0875 46.2773 16.0802 46.6294 16.0655C46.6294 15.8748 46.6294 15.5887 46.6294 15.2072C46.6441 14.8111 46.6514 14.3929 46.6514 13.9528C46.6661 13.5126 46.6808 13.0871 46.6954 12.6763C46.7101 12.2655 46.7248 11.9354 46.7394 11.686L49.6885 11.796C49.6738 12.0454 49.6591 12.3756 49.6444 12.7864C49.6444 13.1825 49.6444 13.6007 49.6444 14.0408C49.6298 14.4663 49.6224 14.8771 49.6224 15.2732C49.6224 15.6547 49.6224 15.9335 49.6224 16.1095C50.0186 16.1095 50.5761 16.1095 51.295 16.1095C52.0286 16.1095 52.7915 16.1095 53.5838 16.1095C54.3614 16.1095 55.1097 16.1022 55.8286 16.0875C56.5475 16.0728 57.105 16.0508 57.5012 16.0215L57.8093 18.4203C57.4571 18.435 56.973 18.4497 56.3568 18.4643C55.7406 18.479 55.0436 18.4863 54.266 18.4863C53.4738 18.501 52.6228 18.5083 51.7132 18.5083C50.8182 18.523 49.9012 18.5303 48.9622 18.5303C48.0086 18.5303 47.0696 18.5303 46.1452 18.5303C45.2209 18.5303 44.3406 18.523 43.5043 18.5083C42.668 18.5083 41.9051 18.501 41.2155 18.4863C40.5406 18.4717 39.9831 18.4497 39.543 18.4203Z" fill="#2DDACC"/>
<path d="M19.8151 4.18141C19.8004 3.47716 20.0352 2.86095 20.5193 2.33277C21.0035 1.80459 21.6637 1.36444 22.5 1.01231C23.3363 0.674864 24.2973 0.425444 25.383 0.264056C26.4834 0.102667 27.6351 0.0219727 28.8382 0.0219727C30.0119 0.0366442 31.127 0.124675 32.1834 0.286063C33.2397 0.43278 34.1714 0.660192 34.9783 0.968298C35.7706 1.29108 36.4015 1.70922 36.871 2.22273C37.3405 2.73624 37.5752 3.35979 37.5752 4.09338C37.5752 4.7536 37.3478 5.31846 36.893 5.78796C36.4382 6.25745 35.8073 6.63892 35.0003 6.93235C34.2081 7.24046 33.2691 7.46054 32.1834 7.59258C31.0977 7.72463 29.9313 7.79065 28.6842 7.79065C27.5691 7.79065 26.4834 7.7393 25.427 7.6366C24.3707 7.51922 23.4243 7.32116 22.5881 7.04239C21.7664 6.76363 21.0989 6.39684 20.5854 5.94201C20.0865 5.47252 19.8298 4.88565 19.8151 4.18141ZM22.7421 4.09338C22.7421 4.38681 22.9182 4.62156 23.2703 4.79762C23.6371 4.97368 24.1139 5.11306 24.7008 5.21576C25.273 5.31846 25.9112 5.39182 26.6154 5.43584C27.3344 5.46518 28.0459 5.47985 28.7502 5.47985C29.5571 5.47985 30.3127 5.45785 31.017 5.41383C31.7212 5.35514 32.3374 5.25978 32.8656 5.12773C33.3938 5.01036 33.8046 4.86364 34.098 4.68758C34.4061 4.49685 34.5602 4.27677 34.5602 4.02735C34.5602 3.71925 34.3915 3.45516 34.054 3.23508C33.7166 3.015 33.2764 2.83894 32.7336 2.7069C32.176 2.57485 31.5525 2.47949 30.8629 2.4208C30.1733 2.34744 29.4691 2.31076 28.7502 2.31076C28.0166 2.31076 27.2903 2.34744 26.5714 2.4208C25.8525 2.49416 25.207 2.6042 24.6348 2.75091C24.0626 2.89763 23.6004 3.08103 23.2483 3.3011C22.9108 3.52118 22.7421 3.78527 22.7421 4.09338ZM19.8151 10.3875L19.9251 8.2308C20.2332 8.27482 20.6734 8.3115 21.2456 8.34084C21.8325 8.35551 22.5147 8.37752 23.2923 8.40686C24.0552 8.42153 24.8842 8.4362 25.7792 8.45088C26.6741 8.45088 27.5838 8.45088 28.5081 8.45088C29.4471 8.46555 30.3714 8.47289 31.2811 8.47289C32.2054 8.45821 33.071 8.44354 33.8779 8.42887C34.6996 8.39953 35.4331 8.37752 36.0787 8.36285C36.7389 8.3335 37.2745 8.29682 37.6853 8.25281L37.9714 10.3655C37.4725 10.4242 36.8636 10.4756 36.1447 10.5196C35.4405 10.5489 34.6776 10.5783 33.8559 10.6076C33.0197 10.6223 32.1393 10.637 31.215 10.6516C30.2907 10.6663 29.3737 10.6663 28.4641 10.6516C27.5398 10.6516 26.6301 10.6443 25.7351 10.6296C24.8548 10.615 24.0332 10.6003 23.2703 10.5856C22.5074 10.5563 21.8251 10.5269 21.2236 10.4976C20.6367 10.4682 20.1672 10.4316 19.8151 10.3875ZM34.8023 16.0655C34.5822 16.0802 34.2667 16.0948 33.8559 16.1095C33.4598 16.1095 33.005 16.1095 32.4915 16.1095C31.978 16.1095 31.4204 16.1095 30.8189 16.1095C30.2174 16.1095 29.6085 16.1095 28.9923 16.1095C28.376 16.1095 27.7745 16.1095 27.1876 16.1095C26.6008 16.0948 26.0579 16.0875 25.5591 16.0875C25.0749 16.0875 24.6494 16.0875 24.2826 16.0875C23.9158 16.0728 23.6591 16.0655 23.5124 16.0655C23.3803 16.0655 23.2776 16.0655 23.2043 16.0655C23.1309 16.0655 23.0722 16.0655 23.0282 16.0655C22.9842 16.0655 22.9548 16.0802 22.9402 16.1095C22.9402 16.1242 22.9402 16.1535 22.9402 16.1975C22.9402 16.4176 23.0576 16.557 23.2923 16.6157C23.527 16.6597 24.0626 16.6964 24.8989 16.7257C25.0749 16.7404 25.3683 16.7551 25.7792 16.7697C26.19 16.7697 26.6668 16.7697 27.2096 16.7697C27.7525 16.7551 28.3467 16.7477 28.9923 16.7477C29.6378 16.7331 30.2907 16.7184 30.9509 16.7037C31.6258 16.6891 32.2861 16.6744 32.9316 16.6597C33.5772 16.645 34.1714 16.623 34.7142 16.5937C35.2571 16.579 35.7339 16.557 36.1447 16.5277C36.5555 16.4983 36.8636 16.469 37.069 16.4396L37.6412 18.5744C37.4505 18.6184 37.1351 18.6551 36.6949 18.6844C36.2694 18.7284 35.7633 18.7651 35.1764 18.7944C34.5749 18.8091 33.922 18.8238 33.2177 18.8385C32.5135 18.8678 31.7946 18.8898 31.061 18.9045C30.3274 18.9045 29.6011 18.9045 28.8822 18.9045C28.1633 18.9192 27.4957 18.9265 26.8795 18.9265C26.278 18.9265 25.7498 18.9192 25.295 18.9045C24.8402 18.9045 24.5101 18.8971 24.3046 18.8825C23.527 18.8531 22.8595 18.7944 22.302 18.7064C21.7591 18.6184 21.3116 18.4717 20.9595 18.2663C20.6074 18.0609 20.3506 17.7748 20.1892 17.408C20.0278 17.0412 19.9618 16.557 19.9912 15.9555C19.9912 15.6327 19.9985 15.3539 20.0132 15.1192C20.0425 14.8698 20.1085 14.657 20.2112 14.481C20.2993 14.3196 20.446 14.1949 20.6514 14.1068C20.8568 14.0188 21.1502 13.9748 21.5317 13.9748H33.6139C33.8193 13.9748 33.9733 13.9748 34.076 13.9748C34.1934 13.9601 34.2741 13.9381 34.3181 13.9088C34.3621 13.8941 34.3841 13.8647 34.3841 13.8207C34.3988 13.7767 34.4061 13.718 34.4061 13.6447C34.3915 13.6007 34.3841 13.5713 34.3841 13.5566C34.3988 13.5273 34.3988 13.5053 34.3841 13.4906C34.3694 13.4759 34.3328 13.4686 34.2741 13.4686C34.2301 13.4539 34.1567 13.4393 34.054 13.4246C33.8926 13.4099 33.5992 13.4026 33.1737 13.4026C32.7629 13.3879 32.2567 13.3806 31.6552 13.3806C31.0683 13.3659 30.4154 13.3586 29.6965 13.3586C28.9776 13.3586 28.244 13.3586 27.4957 13.3586C26.7328 13.3732 25.9846 13.3879 25.251 13.4026C24.5321 13.4026 23.8645 13.4026 23.2483 13.4026C22.6467 13.4173 22.1186 13.4319 21.6637 13.4466C21.2236 13.4613 20.9155 13.4686 20.7394 13.4686L20.1892 11.3119C20.5854 11.2825 21.0842 11.2532 21.6857 11.2238C22.302 11.1945 22.9695 11.1725 23.6884 11.1578C24.422 11.1431 25.185 11.1358 25.9772 11.1358C26.7842 11.1358 27.5838 11.1358 28.376 11.1358C29.1683 11.1505 29.9386 11.1651 30.6868 11.1798C31.4351 11.1798 32.1247 11.1872 32.7556 11.2018C33.3718 11.2312 33.9073 11.2532 34.3621 11.2678C34.8169 11.2825 35.1544 11.2972 35.3745 11.3119C35.9467 11.3559 36.3795 11.4586 36.6729 11.62C36.9663 11.7667 37.1644 12.1041 37.2671 12.6323C37.2818 12.8084 37.2965 12.9698 37.3111 13.1165C37.3258 13.2632 37.3331 13.4246 37.3331 13.6007C37.3331 13.762 37.3258 13.9381 37.3111 14.1288C37.3111 14.3196 37.2965 14.5323 37.2671 14.7671C37.2231 15.1045 37.1057 15.3613 36.915 15.5373C36.7389 15.6987 36.5262 15.8161 36.2768 15.8894C36.0274 15.9775 35.7633 16.0288 35.4845 16.0435C35.2204 16.0435 34.993 16.0508 34.8023 16.0655Z" fill="#2DDACC"/>
<path d="M7.39455 15.9114C7.54127 15.8674 7.6513 15.8234 7.72466 15.7794C7.79802 15.7354 7.84937 15.684 7.87872 15.6253C7.92273 15.5667 7.94474 15.5153 7.94474 15.4713C7.94474 15.4126 7.95207 15.3466 7.96675 15.2732C7.98142 15.1118 7.99609 14.8331 8.01076 14.4369C8.02543 14.0261 8.03277 13.5493 8.03277 13.0064C8.04744 12.4636 8.05478 11.8694 8.05478 11.2238C8.05478 10.5636 8.05478 9.90338 8.05478 9.24315C8.05478 8.58292 8.04744 7.93737 8.03277 7.30648C8.03277 6.66093 8.02543 6.07406 8.01076 5.54588C7.99609 5.00302 7.98142 4.5482 7.96675 4.18141C7.96675 3.79994 7.95941 3.53585 7.94474 3.38913C7.90072 3.12504 7.85671 2.96365 7.81269 2.90497C7.76868 2.84628 7.66598 2.80226 7.50459 2.77292C7.22582 2.75825 6.90305 2.74358 6.53625 2.7289C6.16946 2.71423 5.79533 2.7069 5.41387 2.7069C5.0324 2.7069 4.66561 2.72157 4.31349 2.75091C3.97604 2.76558 3.70461 2.78026 3.49921 2.79493C3.33782 2.82427 3.22044 2.86829 3.14708 2.92697C3.0884 2.98566 3.05172 3.10303 3.03705 3.27909C3.0077 3.44048 2.9857 3.72658 2.97102 4.13739C2.95635 4.5482 2.94168 5.0397 2.92701 5.6119C2.91234 6.16942 2.89767 6.78564 2.88299 7.46054C2.88299 8.13544 2.88299 8.81767 2.88299 9.50724C2.88299 10.1968 2.88299 10.8717 2.88299 11.5319C2.88299 12.1775 2.89033 12.7644 2.905 13.2925C2.905 13.8354 2.91234 14.2902 2.92701 14.657C2.94168 15.0091 2.95635 15.2292 2.97102 15.3172C2.97102 15.4199 2.97836 15.508 2.99303 15.5813C3.0077 15.64 3.02971 15.6914 3.05905 15.7354C3.0884 15.7794 3.12508 15.8161 3.16909 15.8454C3.22778 15.8748 3.31581 15.8894 3.43318 15.8894C3.59457 15.9188 3.85133 15.9481 4.20345 15.9775C4.55557 15.9921 4.93704 15.9995 5.34784 15.9995C5.74398 16.0141 6.13278 16.0215 6.51425 16.0215C6.89571 16.0068 7.18914 15.9701 7.39455 15.9114ZM8.49493 18.2883C8.08412 18.3616 7.59262 18.413 7.02042 18.4423C6.44822 18.4717 5.86869 18.479 5.28182 18.4643C4.69495 18.4643 4.13743 18.4497 3.60924 18.4203C3.09573 18.391 2.69226 18.3543 2.39883 18.3103C2.00269 18.2516 1.67258 18.1856 1.40849 18.1122C1.15907 18.0535 0.953662 17.9582 0.792273 17.8261C0.616212 17.6941 0.476831 17.5253 0.374129 17.3199C0.286099 17.0999 0.220076 16.8064 0.176061 16.4396C0.146717 16.2636 0.117374 15.9775 0.0880304 15.5813C0.0733586 15.1705 0.0660227 14.679 0.0660227 14.1068C0.051351 13.5346 0.0366793 12.9037 0.0220076 12.2142C0.00733587 11.5246 0 10.813 0 10.0794C0 9.34585 0 8.61227 0 7.87868C0 7.13042 0 6.42618 0 5.76595C0.0146718 5.09105 0.0293434 4.47484 0.0440151 3.91732C0.0586868 3.34512 0.0806944 2.86829 0.110038 2.48682C0.110038 2.29609 0.117374 2.09069 0.132045 1.87061C0.146717 1.63586 0.21274 1.41579 0.330114 1.21038C0.432816 1.01965 0.601541 0.850924 0.836288 0.704207C1.07104 0.542818 1.42316 0.440116 1.89265 0.396101C2.37682 0.352086 2.92701 0.308071 3.54322 0.264056C4.15943 0.22004 4.79032 0.198033 5.43587 0.198033C6.06676 0.183361 6.68297 0.190697 7.28451 0.220041C7.88605 0.234713 8.41423 0.271392 8.86906 0.330079C9.23585 0.403437 9.52928 0.484132 9.74936 0.572162C9.98411 0.660192 10.1675 0.777566 10.2995 0.924283C10.4169 1.071 10.505 1.2544 10.5636 1.47447C10.6223 1.67988 10.681 1.93663 10.7397 2.24474C10.769 2.50883 10.7984 2.88296 10.8277 3.36713C10.8571 3.85129 10.8864 4.40882 10.9158 5.0397C10.9304 5.65591 10.9451 6.33081 10.9598 7.0644C10.9744 7.78331 10.9818 8.5169 10.9818 9.26516C10.9818 10.0134 10.9744 10.7543 10.9598 11.4879C10.9598 12.2215 10.9524 12.9111 10.9378 13.5566C10.9231 14.2022 10.8938 14.7817 10.8497 15.2952C10.8204 15.8087 10.7837 16.2122 10.7397 16.5057C10.6663 16.8871 10.5636 17.1806 10.4316 17.386C10.3142 17.606 10.1602 17.7674 9.96944 17.8701C9.79338 17.9875 9.58064 18.0682 9.33122 18.1122C9.0818 18.1709 8.80303 18.2296 8.49493 18.2883ZM15.7354 7.0644L18.3323 7.04239L18.5524 9.57326L15.7794 9.59527C15.7794 9.75666 15.7794 9.99141 15.7794 10.2995C15.7794 10.6076 15.7794 10.9744 15.7794 11.3999C15.7648 11.8107 15.7501 12.2582 15.7354 12.7424C15.7207 13.2265 15.7061 13.718 15.6914 14.2169C15.6621 14.7157 15.6327 15.2072 15.6034 15.6914C15.5887 16.1609 15.5667 16.5937 15.5374 16.9898C15.508 17.4006 15.4787 17.7528 15.4493 18.0462C15.4347 18.3396 15.42 18.545 15.4053 18.6624L12.5003 18.3323C12.5297 18.1416 12.5517 17.7894 12.5663 17.2759C12.5957 16.7477 12.6177 16.1169 12.6324 15.3833C12.6617 14.635 12.6764 13.8134 12.6764 12.9184C12.691 12.0088 12.6984 11.0771 12.6984 10.1235C12.6984 9.16979 12.691 8.21613 12.6764 7.26247C12.6617 6.29413 12.6397 5.38449 12.6103 4.53353C12.581 3.68257 12.5443 2.9123 12.5003 2.22273C12.471 1.53316 12.4269 0.975634 12.3683 0.550155L15.2733 0.0219727C15.3173 0.315407 15.3613 0.792238 15.4053 1.45247C15.464 2.09802 15.5153 2.78759 15.5594 3.52118C15.6034 4.26944 15.6401 4.97368 15.6694 5.63391C15.7134 6.29413 15.7354 6.77096 15.7354 7.0644Z" fill="#2DDACC"/>
</svg>
